<?xml version="1.0" standalone="no"?>
<!DOCTYPE svg PUBLIC "-//W3C//DTD SVG 20010904//EN"
 "http://www.w3.org/TR/2001/REC-SVG-20010904/DTD/svg10.dtd">
<svg version="1.0" xmlns="http://www.w3.org/2000/svg"
 width="668.000000pt" height="383.000000pt" viewBox="0 0 668.000000 383.000000"
 preserveAspectRatio="xMidYMid meet">
<metadata>
Created by potrace 1.12, written by Peter Selinger 2001-2015
</metadata>
<g transform="translate(0.000000,383.000000) scale(0.100000,-0.100000)"
fill="#000000" stroke="none">
<path d="M1 2978 c1 -469 3 -842 6 -828 19 126 40 222 69 317 204 672 766
1184 1460 1328 66 13 135 26 154 28 19 2 -353 5 -827 5 l-863 2 1 -852z"/>
<path d="M2160 3824 c251 -36 451 -98 649 -199 534 -273 890 -737 1023 -1335
21 -95 23 -129 23 -370 0 -271 -4 -317 -47 -480 -67 -259 -206 -536 -366 -730
-117 -142 -314 -318 -462 -411 -230 -146 -522 -255 -775 -288 -33 -5 960 -9
2208 -10 l2267 -1 0 1915 0 1915 -2272 -1 c-1250 -1 -2262 -3 -2248 -5z m2215
-1287 c42 -24 85 -78 85 -107 0 -13 -12 -19 -46 -25 -44 -6 -47 -5 -79 32 -29
33 -38 38 -75 37 -33 -1 -49 -8 -74 -33 -30 -31 -31 -33 -31 -126 0 -89 1 -95
28 -123 53 -55 132 -44 164 22 19 40 20 41 74 24 46 -13 48 -26 14 -84 -33
-56 -90 -84 -173 -84 -79 0 -117 16 -164 68 -43 47 -58 94 -58 178 0 107 40
182 120 224 52 28 163 27 215 -3z m517 -12 c23 -17 54 -51 68 -75 22 -39 25
-57 25 -140 0 -78 -4 -102 -22 -135 -44 -82 -104 -115 -210 -115 -83 0 -138
23 -180 74 -38 47 -53 96 -53 176 0 80 15 129 53 176 47 57 97 75 194 72 72
-3 86 -6 125 -33z m487 -4 c54 -38 81 -109 81 -212 0 -73 -4 -93 -27 -140 -44
-85 -76 -99 -240 -99 l-133 0 0 241 0 240 143 -3 c131 -3 145 -5 176 -27z
m521 -11 l0 -40 -130 0 -130 0 0 -55 0 -55 120 0 120 0 0 -40 0 -40 -120 0
-120 0 0 -65 0 -65 135 0 135 0 0 -40 0 -40 -185 0 -185 0 0 240 0 240 180 0
180 0 0 -40z m-1577 -764 c45 -19 77 -57 84 -100 l6 -36 -51 0 c-45 0 -52 3
-64 27 -22 45 -115 52 -142 11 -17 -27 17 -54 92 -74 127 -33 165 -64 178
-142 4 -29 1 -52 -15 -86 -29 -66 -82 -89 -195 -84 -97 4 -138 27 -168 95 -26
59 -19 73 37 73 38 0 47 -4 54 -22 16 -41 48 -61 96 -61 51 0 85 23 85 59 0
27 -30 45 -104 63 -110 27 -166 79 -166 154 0 89 60 136 173 137 37 0 82 -6
100 -14z m537 -36 l0 -40 -125 0 -125 0 0 -55 0 -55 115 0 115 0 0 -40 0 -40
-115 0 -115 0 0 -65 0 -65 130 0 130 0 0 -40 0 -40 -185 0 -185 0 0 240 0 240
180 0 180 0 0 -40z m209 -133 l56 -168 54 163 c29 90 57 167 61 171 4 5 30 7
58 5 l50 -3 -83 -235 -82 -235 -62 -3 c-33 -2 -61 -1 -61 1 0 3 -36 108 -80
233 -44 126 -80 232 -80 237 0 4 26 7 57 5 l56 -3 56 -168z m691 133 l0 -40
-130 0 -130 0 0 -55 0 -55 120 0 120 0 0 -40 0 -40 -120 0 -120 0 0 -65 0 -65
130 0 130 0 0 -40 0 -40 -185 0 -185 0 0 240 0 240 185 0 185 0 0 -40z m278
-112 l92 -152 0 152 0 152 50 0 50 0 0 -240 0 -241 -57 3 -56 3 -86 138 -86
137 -3 -140 -3 -140 -49 0 -50 0 0 240 0 240 53 0 52 -1 93 -151z"/>
<path d="M4725 2473 c-63 -17 -95 -71 -95 -163 0 -104 43 -162 120 -164 78 -2
130 63 130 162 0 71 -19 123 -54 145 -26 17 -74 27 -101 20z"/>
<path d="M5160 2311 l0 -161 43 0 c68 0 115 18 131 48 35 70 27 196 -16 238
-19 19 -39 26 -91 31 l-67 6 0 -162z"/>
<path d="M640 1920 l0 -840 1245 0 1245 0 0 840 0 840 -1245 0 -1245 0 0 -840z
m2480 0 l0 -830 -1235 0 -1235 0 0 830 0 830 1235 0 1235 0 0 -830z"/>
<path d="M2 853 l-2 -853 858 2 c471 0 841 3 822 5 -70 8 -267 52 -345 78
-432 144 -771 401 -1032 785 -135 198 -270 565 -296 800 -2 19 -5 -349 -5
-817z"/>
</g>
</svg>
